<svg width="67" height="67" viewBox="0 0 67 67" fill="none" xmlns="http://www.w3.org/2000/svg">
<g filter="url(#filter0_d_55_565)">
<path d="M28.582 0C44.3672 0.000136469 57.164 13.6624 57.1641 30.5156C57.1641 47.3689 44.3672 61.0311 28.582 61.0312C12.7967 61.0312 0 47.369 0 30.5156C7.04802e-05 13.6623 12.7968 0 28.582 0ZM28.7246 7.66699C16.8265 7.66733 7.18073 17.9657 7.18066 30.6689C7.18072 43.3722 16.8265 53.6706 28.7246 53.6709C40.623 53.6709 50.2685 43.3725 50.2686 30.6689C50.2685 17.9654 40.623 7.66699 28.7246 7.66699Z" fill="#3EA7A6"/>
<line x1="5" y1="-5" x2="22.5228" y2="-5" transform="matrix(0.653422 0.756994 -0.725598 0.688119 38.8076 44.1655)" stroke="#E5B44F" stroke-width="10" stroke-linecap="round"/>
<line x1="5" y1="-5" x2="35.4407" y2="-5" transform="matrix(0.694358 -0.71963 0.686191 0.727421 26.9194 46.1025)" stroke="#FF6AA2" stroke-width="10" stroke-linecap="round"/>
<line x1="5" y1="-5" x2="19.9714" y2="-5" transform="matrix(-0.530662 -0.847583 0.823902 -0.566733 33.2515 40.1021)" stroke="#FF6AA2" stroke-width="10" stroke-linecap="round"/>
</g>
<defs>
<filter id="filter0_d_55_565" x="0" y="0" width="66.0347" height="69" filterUnits="userSpaceOnUse" color-interpolation-filters="sRGB">
<feFlood flood-opacity="0" result="BackgroundImageFix"/>
<feColorMatrix in="SourceAlpha" type="matrix" values="0 0 0 0 0 0 0 0 0 0 0 0 0 0 0 0 0 0 127 0" result="hardAlpha"/>
<feOffset dx="4" dy="4"/>
<feComposite in2="hardAlpha" operator="out"/>
<feColorMatrix type="matrix" values="0 0 0 0 0 0 0 0 0 0 0 0 0 0 0 0 0 0 0.25 0"/>
<feBlend mode="normal" in2="BackgroundImageFix" result="effect1_dropShadow_55_565"/>
<feBlend mode="normal" in="SourceGraphic" in2="effect1_dropShadow_55_565" result="shape"/>
</filter>
</defs>
</svg>
